<svg width="107" height="48" viewBox="0 0 107 48" fill="none" xmlns="http://www.w3.org/2000/svg">
<path d="M4.02 33.21C3.52 33.21 3.13 33.07 2.85 32.79C2.59 32.51 2.46 32.12 2.46 31.62V13.2C2.46 12.68 2.59 12.29 2.85 12.03C3.13 11.77 3.52 11.64 4.02 11.64C4.52 11.64 4.9 11.77 5.16 12.03C5.44 12.29 5.58 12.68 5.58 13.2V21.36H5.64L14.85 12.45C15.15 12.17 15.43 11.97 15.69 11.85C15.97 11.71 16.28 11.64 16.62 11.64C17.08 11.64 17.41 11.76 17.61 12C17.83 12.22 17.92 12.49 17.88 12.81C17.84 13.13 17.67 13.44 17.37 13.74L7.8 22.86L7.86 21.33L17.82 30.93C18.18 31.27 18.37 31.62 18.39 31.98C18.41 32.34 18.3 32.64 18.06 32.88C17.82 33.1 17.48 33.21 17.04 33.21C16.64 33.21 16.32 33.13 16.08 32.97C15.84 32.81 15.56 32.58 15.24 32.28L5.64 23.13H5.58V31.62C5.58 32.12 5.45 32.51 5.19 32.79C4.93 33.07 4.54 33.21 4.02 33.21ZM22.9373 33.21C22.4773 33.21 22.1173 33.08 21.8573 32.82C21.6173 32.56 21.4973 32.2 21.4973 31.74V13.11C21.4973 12.63 21.6273 12.27 21.8873 12.03C22.1473 11.77 22.4973 11.64 22.9373 11.64C23.3573 11.64 23.6773 11.72 23.8973 11.88C24.1373 12.02 24.3573 12.28 24.5573 12.66L32.4173 27.33H31.4873L39.3173 12.66C39.5173 12.28 39.7273 12.02 39.9473 11.88C40.1673 11.72 40.4873 11.64 40.9073 11.64C41.3473 11.64 41.6873 11.77 41.9273 12.03C42.1673 12.27 42.2873 12.63 42.2873 13.11V31.74C42.2873 32.2 42.1673 32.56 41.9273 32.82C41.7073 33.08 41.3673 33.21 40.9073 33.21C40.4473 33.21 40.0973 33.08 39.8573 32.82C39.6173 32.56 39.4973 32.2 39.4973 31.74V16.26H40.1573L33.1973 29.13C33.0373 29.43 32.8673 29.65 32.6873 29.79C32.5073 29.93 32.2573 30 31.9373 30C31.6173 30 31.3573 29.93 31.1573 29.79C30.9573 29.63 30.7773 29.41 30.6173 29.13L23.5973 16.23H24.3173V31.74C24.3173 32.2 24.1973 32.56 23.9573 32.82C23.7373 33.08 23.3973 33.21 22.9373 33.21ZM46.8572 33.21C46.4572 33.21 46.1372 33.12 45.8972 32.94C45.6572 32.76 45.5172 32.52 45.4772 32.22C45.4372 31.92 45.4972 31.58 45.6572 31.2L53.7872 12.96C53.9872 12.48 54.2372 12.14 54.5372 11.94C54.8572 11.74 55.2072 11.64 55.5872 11.64C55.9472 11.64 56.2772 11.74 56.5772 11.94C56.8972 12.14 57.1572 12.48 57.3572 12.96L65.4872 31.2C65.6672 31.58 65.7372 31.93 65.6972 32.25C65.6572 32.55 65.5272 32.79 65.3072 32.97C65.0872 33.13 64.7772 33.21 64.3772 33.21C63.9372 33.21 63.5872 33.1 63.3272 32.88C63.0672 32.66 62.8372 32.32 62.6372 31.86L60.5372 27L61.9472 27.84H49.1672L50.5472 27L48.4772 31.86C48.2772 32.34 48.0572 32.69 47.8172 32.91C47.5772 33.11 47.2572 33.21 46.8572 33.21ZM55.5272 15.3L50.9972 26.04L50.2472 25.32H60.8372L60.1472 26.04L55.5872 15.3H55.5272Z" fill="#000626" fill-opacity="0.9"/>
<path d="M91 11.25C88.4783 11.25 86.0132 11.9978 83.9165 13.3988C81.8198 14.7998 80.1856 16.791 79.2205 19.1208C78.2555 21.4505 78.003 24.0141 78.495 26.4874C78.987 28.9607 80.2013 31.2325 81.9844 33.0156C83.7675 34.7987 86.0393 36.0131 88.5126 36.505C90.9859 36.997 93.5495 36.7445 95.8792 35.7795C98.209 34.8144 100.2 33.1802 101.601 31.0835C103.002 28.9868 103.75 26.5217 103.75 24C103.746 20.6197 102.401 17.379 100.011 14.9888C97.621 12.5985 94.3803 11.254 91 11.25ZM91 12.75C93.2259 12.7477 95.402 13.4092 97.25 14.65V17.25C97.2503 17.31 97.229 17.3681 97.19 17.4137L94.4188 20.625C94.3789 20.6715 94.3232 20.7018 94.2625 20.71L90.3288 21.25C90.2652 21.2586 90.2008 21.2425 90.1488 21.205L90.1188 21.185L87.6563 19.5737C87.4656 19.439 87.2499 19.3438 87.0219 19.2937C86.7938 19.2436 86.5581 19.2396 86.3285 19.282C86.0989 19.3244 85.8801 19.4123 85.685 19.5406C85.4899 19.6688 85.3225 19.8348 85.1925 20.0288L82.5675 23.9412C82.3764 24.2264 82.2738 24.5617 82.2725 24.905L82.25 29.4312C82.2498 29.4724 82.2394 29.5129 82.2198 29.5491C82.2002 29.5853 82.1719 29.6161 82.1375 29.6388L81.5125 30.0475C80.4284 28.3469 79.8213 26.3861 79.7549 24.3704C79.6885 22.3546 80.1652 20.3581 81.1351 18.5899C82.105 16.8216 83.5324 15.3465 85.2679 14.3191C87.0034 13.2917 88.9832 12.7498 91 12.75ZM82.41 31.2563L82.9638 30.8937C83.2044 30.735 83.4021 30.5192 83.5393 30.2655C83.6765 30.0119 83.7489 29.7283 83.75 29.44L83.7763 24.9112C83.7766 24.8624 83.7909 24.8147 83.8175 24.7738L86.4425 20.8612C86.4612 20.8332 86.4853 20.8093 86.5134 20.7908C86.5416 20.7723 86.5731 20.7597 86.6063 20.7537C86.6392 20.7479 86.6731 20.7488 86.7057 20.7563C86.7383 20.7639 86.7691 20.7779 86.7963 20.7975L86.8263 20.8175L89.2888 22.4288C89.6512 22.6863 90.0984 22.7954 90.5388 22.7338L94.4725 22.2013C94.8965 22.1438 95.2847 21.933 95.5638 21.6088L98.335 18.3888C98.6046 18.0707 98.7517 17.6669 98.75 17.25V15.8525C100.333 17.3553 101.444 19.2864 101.947 21.41C102.45 23.5337 102.325 25.7579 101.585 27.8113L99.285 25.7087C99.0392 25.4839 98.7343 25.3338 98.4061 25.2762C98.078 25.2187 97.7402 25.256 97.4325 25.3838L93.625 26.9662C93.3465 27.0834 93.1028 27.2701 92.9172 27.5084C92.7316 27.7468 92.6103 28.0288 92.565 28.3275L92.2675 30.3512C92.2048 30.7774 92.3015 31.2117 92.539 31.5711C92.7766 31.9304 93.1383 32.1895 93.555 32.2987L96.2375 33C96.2805 33.012 96.3196 33.0348 96.3513 33.0662L96.8738 33.5888C94.5827 34.9951 91.8632 35.5331 89.2093 35.1051C86.5553 34.6771 84.1428 33.3115 82.41 31.2563ZM98.1125 32.71L97.4138 32.0088C97.194 31.7887 96.9196 31.6312 96.6188 31.5525L93.9363 30.8487C93.8767 30.8331 93.8249 30.796 93.791 30.7445C93.7571 30.6931 93.7434 30.6309 93.7525 30.57L94.0513 28.5462C94.0574 28.5034 94.0746 28.463 94.1011 28.4288C94.1277 28.3946 94.1626 28.3679 94.2025 28.3512L98.0088 26.7687C98.0527 26.7504 98.1011 26.745 98.148 26.7532C98.195 26.7614 98.2386 26.7828 98.2738 26.815L100.944 29.2575C100.238 30.5845 99.2756 31.758 98.1125 32.71Z" fill="#000933" fill-opacity="0.65"/>
</svg>
