<svg width="201" height="48" viewBox="0 0 201 48" fill="none" xmlns="http://www.w3.org/2000/svg">
<path d="M4.52 33.21C4.02 33.21 3.63 33.07 3.35 32.79C3.09 32.51 2.96 32.12 2.96 31.62V13.2C2.96 12.68 3.09 12.29 3.35 12.03C3.63 11.77 4.02 11.64 4.52 11.64C5.02 11.64 5.4 11.77 5.66 12.03C5.94 12.29 6.08 12.68 6.08 13.2V21.36H6.14L15.35 12.45C15.65 12.17 15.93 11.97 16.19 11.85C16.47 11.71 16.78 11.64 17.12 11.64C17.58 11.64 17.91 11.76 18.11 12C18.33 12.22 18.42 12.49 18.38 12.81C18.34 13.13 18.17 13.44 17.87 13.74L8.3 22.86L8.36 21.33L18.32 30.93C18.68 31.27 18.87 31.62 18.89 31.98C18.91 32.34 18.8 32.64 18.56 32.88C18.32 33.1 17.98 33.21 17.54 33.21C17.14 33.21 16.82 33.13 16.58 32.97C16.34 32.81 16.06 32.58 15.74 32.28L6.14 23.13H6.08V31.62C6.08 32.12 5.95 32.51 5.69 32.79C5.43 33.07 5.04 33.21 4.52 33.21ZM23.4373 33.21C22.9773 33.21 22.6173 33.08 22.3573 32.82C22.1173 32.56 21.9973 32.2 21.9973 31.74V13.11C21.9973 12.63 22.1273 12.27 22.3873 12.03C22.6473 11.77 22.9973 11.64 23.4373 11.64C23.8573 11.64 24.1773 11.72 24.3973 11.88C24.6373 12.02 24.8573 12.28 25.0573 12.66L32.9173 27.33H31.9873L39.8173 12.66C40.0173 12.28 40.2273 12.02 40.4473 11.88C40.6673 11.72 40.9873 11.64 41.4073 11.64C41.8473 11.64 42.1873 11.77 42.4273 12.03C42.6673 12.27 42.7873 12.63 42.7873 13.11V31.74C42.7873 32.2 42.6673 32.56 42.4273 32.82C42.2073 33.08 41.8673 33.21 41.4073 33.21C40.9473 33.21 40.5973 33.08 40.3573 32.82C40.1173 32.56 39.9973 32.2 39.9973 31.74V16.26H40.6573L33.6973 29.13C33.5373 29.43 33.3673 29.65 33.1873 29.79C33.0073 29.93 32.7573 30 32.4373 30C32.1173 30 31.8573 29.93 31.6573 29.79C31.4573 29.63 31.2773 29.41 31.1173 29.13L24.0973 16.23H24.8173V31.74C24.8173 32.2 24.6973 32.56 24.4573 32.82C24.2373 33.08 23.8973 33.21 23.4373 33.21ZM47.3572 33.21C46.9572 33.21 46.6372 33.12 46.3972 32.94C46.1572 32.76 46.0172 32.52 45.9772 32.22C45.9372 31.92 45.9972 31.58 46.1572 31.2L54.2872 12.96C54.4872 12.48 54.7372 12.14 55.0372 11.94C55.3572 11.74 55.7072 11.64 56.0872 11.64C56.4472 11.64 56.7772 11.74 57.0772 11.94C57.3972 12.14 57.6572 12.48 57.8572 12.96L65.9872 31.2C66.1672 31.58 66.2372 31.93 66.1972 32.25C66.1572 32.55 66.0272 32.79 65.8072 32.97C65.5872 33.13 65.2772 33.21 64.8772 33.21C64.4372 33.21 64.0872 33.1 63.8272 32.88C63.5672 32.66 63.3372 32.32 63.1372 31.86L61.0372 27L62.4472 27.84H49.6672L51.0472 27L48.9772 31.86C48.7772 32.34 48.5572 32.69 48.3172 32.91C48.0772 33.11 47.7572 33.21 47.3572 33.21ZM56.0272 15.3L51.4972 26.04L50.7472 25.32H61.3372L60.6472 26.04L56.0872 15.3H56.0272Z" fill="#000626" fill-opacity="0.9"/>
<path d="M91.5 11.25C88.9783 11.25 86.5132 11.9978 84.4165 13.3988C82.3198 14.7998 80.6856 16.791 79.7205 19.1208C78.7555 21.4505 78.503 24.0141 78.995 26.4874C79.487 28.9607 80.7013 31.2325 82.4844 33.0156C84.2675 34.7987 86.5393 36.0131 89.0126 36.505C91.4859 36.997 94.0495 36.7445 96.3792 35.7795C98.709 34.8144 100.7 33.1802 102.101 31.0835C103.502 28.9868 104.25 26.5217 104.25 24C104.246 20.6197 102.901 17.379 100.511 14.9888C98.121 12.5985 94.8803 11.254 91.5 11.25ZM91.5 12.75C93.7259 12.7477 95.902 13.4092 97.75 14.65V17.25C97.7503 17.31 97.729 17.3681 97.69 17.4137L94.9188 20.625C94.8789 20.6715 94.8232 20.7018 94.7625 20.71L90.8288 21.25C90.7652 21.2586 90.7008 21.2425 90.6488 21.205L90.6188 21.185L88.1563 19.5737C87.9656 19.439 87.7499 19.3438 87.5219 19.2937C87.2938 19.2436 87.0581 19.2396 86.8285 19.282C86.5989 19.3244 86.3801 19.4123 86.185 19.5406C85.9899 19.6688 85.8225 19.8348 85.6925 20.0288L83.0675 23.9412C82.8764 24.2264 82.7738 24.5617 82.7725 24.905L82.75 29.4312C82.7498 29.4724 82.7394 29.5129 82.7198 29.5491C82.7002 29.5853 82.6719 29.6161 82.6375 29.6388L82.0125 30.0475C80.9284 28.3469 80.3213 26.3861 80.2549 24.3704C80.1885 22.3546 80.6652 20.3581 81.6351 18.5899C82.605 16.8216 84.0324 15.3465 85.7679 14.3191C87.5034 13.2917 89.4832 12.7498 91.5 12.75ZM82.91 31.2563L83.4638 30.8937C83.7044 30.735 83.9021 30.5192 84.0393 30.2655C84.1765 30.0119 84.2489 29.7283 84.25 29.44L84.2763 24.9112C84.2766 24.8624 84.2909 24.8147 84.3175 24.7738L86.9425 20.8612C86.9612 20.8332 86.9853 20.8093 87.0134 20.7908C87.0416 20.7723 87.0731 20.7597 87.1063 20.7537C87.1392 20.7479 87.1731 20.7488 87.2057 20.7563C87.2383 20.7639 87.2691 20.7779 87.2963 20.7975L87.3263 20.8175L89.7888 22.4288C90.1512 22.6863 90.5984 22.7954 91.0388 22.7338L94.9725 22.2013C95.3965 22.1438 95.7847 21.933 96.0638 21.6088L98.835 18.3888C99.1046 18.0707 99.2517 17.6669 99.25 17.25V15.8525C100.833 17.3553 101.944 19.2864 102.447 21.41C102.95 23.5337 102.825 25.7579 102.085 27.8113L99.785 25.7087C99.5392 25.4839 99.2343 25.3338 98.9061 25.2762C98.578 25.2187 98.2402 25.256 97.9325 25.3838L94.125 26.9662C93.8465 27.0834 93.6028 27.2701 93.4172 27.5084C93.2316 27.7468 93.1103 28.0288 93.065 28.3275L92.7675 30.3512C92.7048 30.7774 92.8015 31.2117 93.039 31.5711C93.2766 31.9304 93.6383 32.1895 94.055 32.2987L96.7375 33C96.7805 33.012 96.8196 33.0348 96.8513 33.0662L97.3738 33.5888C95.0827 34.9951 92.3632 35.5331 89.7093 35.1051C87.0553 34.6771 84.6428 33.3115 82.91 31.2563ZM98.6125 32.71L97.9138 32.0088C97.694 31.7887 97.4196 31.6312 97.1188 31.5525L94.4363 30.8487C94.3767 30.8331 94.3249 30.796 94.291 30.7445C94.2571 30.6931 94.2434 30.6309 94.2525 30.57L94.5513 28.5462C94.5574 28.5034 94.5746 28.463 94.6011 28.4288C94.6277 28.3946 94.6626 28.3679 94.7025 28.3512L98.5088 26.7687C98.5527 26.7504 98.6011 26.745 98.648 26.7532C98.695 26.7614 98.7386 26.7828 98.7738 26.815L101.444 29.2575C100.738 30.5845 99.7756 31.758 98.6125 32.71Z" fill="#000933" fill-opacity="0.65"/>
</svg>
